<?xml version="1.0" encoding="UTF-8" standalone="no"?>
<svg xmlns="http://www.w3.org/2000/svg" width="2400" height="1600" viewBox="0 0 2400 1600">
  <defs>
    <!-- base gradient -->
    <linearGradient id="bg" x1="0" y1="0" x2="0" y2="1">
      <stop offset="0%" stop-color="#f7faff"/>
      <stop offset="100%" stop-color="#edf2fb"/>
    </linearGradient>

    <!-- gentle glows -->
    <radialGradient id="glowA" cx="18%" cy="15%" r="70%">
      <stop offset="0%" stop-color="#a7c4ff" stop-opacity="0.32"/>
      <stop offset="100%" stop-color="#a7c4ff" stop-opacity="0"/>
    </radialGradient>
    <radialGradient id="glowB" cx="88%" cy="85%" r="70%">
      <stop offset="0%" stop-color="#bff5e4" stop-opacity="0.22"/>
      <stop offset="100%" stop-color="#bff5e4" stop-opacity="0"/>
    </radialGradient>

    <!-- ribbons -->
    <linearGradient id="rib1" x1="0" y1="0" x2="1" y2="1">
      <stop offset="0%" stop-color="#90b6ff" stop-opacity="0.35"/>
      <stop offset="100%" stop-color="#a0d4ff" stop-opacity="0.15"/>
    </linearGradient>
    <linearGradient id="rib2" x1="1" y1="0" x2="0" y2="1">
      <stop offset="0%" stop-color="#bbc6ff" stop-opacity="0.28"/>
      <stop offset="100%" stop-color="#d6e3ff" stop-opacity="0.12"/>
    </linearGradient>

    <!-- soft filters -->
    <filter id="soft" x="-25%" y="-25%" width="150%" height="150%">
      <feGaussianBlur stdDeviation="38" />
    </filter>
    <filter id="softer" x="-35%" y="-35%" width="170%" height="170%">
      <feGaussianBlur stdDeviation="70" />
    </filter>

    <!-- stroke gradient for rounded lines -->
    <linearGradient id="strokeViolet" x1="0" y1="0" x2="1" y2="0">
      <stop offset="0%" stop-color="#9db0ff" stop-opacity="0.55"/>
      <stop offset="100%" stop-color="#d0dbff" stop-opacity="0.15"/>
    </linearGradient>
    <linearGradient id="strokeCoral" x1="0" y1="0" x2="1" y2="0">
      <stop offset="0%" stop-color="#ffc2de" stop-opacity="0.45"/>
      <stop offset="100%" stop-color="#ffd9ea" stop-opacity="0.12"/>
    </linearGradient>
  </defs>

  <!-- background -->
  <rect width="100%" height="100%" fill="url(#bg)"/>

  <!-- glows -->
  <circle cx="360" cy="240" r="520" fill="url(#glowA)" filter="url(#softer)"/>
  <circle cx="2100" cy="1450" r="720" fill="url(#glowB)" filter="url(#softer)"/>

  <!-- abstract ribbons (blurred) -->
  <path d="M-200,900 C400,650 1200,1150 2600,800 L2600,1700 L-200,1700 Z"
        fill="url(#rib1)" filter="url(#soft)"/>
  <path d="M-300,200 C600,100 1400,600 2600,350 L2600,-100 L-300,-100 Z"
        fill="url(#rib2)" filter="url(#soft)"/>
  <path d="M-200,1200 C500,1050 1500,1400 2600,1150 L2600,1700 L-200,1700 Z"
        fill="#cfe3ff" fill-opacity="0.12" filter="url(#soft)"/>

  <!-- NEW: rounded decorative strokes -->
  <path d="M200,430 C650,210 1280,610 1860,320" 
        stroke="url(#strokeViolet)" stroke-width="44" fill="none" stroke-linecap="round" filter="url(#soft)"/>
  <path d="M260,1180 C760,980 1620,1360 2200,1100" 
        stroke="url(#strokeCoral)" stroke-width="36" fill="none" stroke-linecap="round" filter="url(#soft)"/>
  <path d="M150,760 C520,680 1320,820 2240,720"
        stroke="url(#strokeViolet)" stroke-width="18" fill="none" stroke-linecap="round" opacity="0.35" filter="url(#soft)"/>

  <!-- NEW: soft ellipses -->
  <ellipse cx="620" cy="940" rx="280" ry="160" fill="#b8c2ff" fill-opacity="0.12" filter="url(#soft)"/>
  <ellipse cx="1850" cy="520" rx="320" ry="180" fill="#ffd6e6" fill-opacity="0.10" filter="url(#soft)"/>
</svg>
