<?xml version="1.0" encoding="UTF-8" standalone="no"?>
<svg xmlns="http://www.w3.org/2000/svg" width="2400" height="1600" viewBox="0 0 2400 1600">
  <defs>
    <linearGradient id="bg" x1="0" y1="0" x2="0" y2="1">
      <stop offset="0%" stop-color="#f6f9ff"/>
      <stop offset="100%" stop-color="#eef2f8"/>
    </linearGradient>

    <radialGradient id="glow1" cx="20%" cy="15%" r="60%">
      <stop offset="0%" stop-color="#a6c8ff" stop-opacity="0.30"/>
      <stop offset="100%" stop-color="#a6c8ff" stop-opacity="0"/>
    </radialGradient>
    <radialGradient id="glow2" cx="85%" cy="85%" r="70%">
      <stop offset="0%" stop-color="#b8ffe6" stop-opacity="0.22"/>
      <stop offset="100%" stop-color="#b8ffe6" stop-opacity="0"/>
    </radialGradient>

    <filter id="softBlur" x="-20%" y="-20%" width="140%" height="140%">
      <feGaussianBlur stdDeviation="40" />
    </filter>
    <filter id="softerBlur" x="-30%" y="-30%" width="160%" height="160%">
      <feGaussianBlur stdDeviation="70" />
    </filter>

    <linearGradient id="ribbon1" x1="0" y1="0" x2="1" y2="1">
      <stop offset="0%" stop-color="#92b7ff" stop-opacity="0.35"/>
      <stop offset="100%" stop-color="#9ad5ff" stop-opacity="0.15"/>
    </linearGradient>
    <linearGradient id="ribbon2" x1="1" y1="0" x2="0" y2="1">
      <stop offset="0%" stop-color="#b8c2ff" stop-opacity="0.28"/>
      <stop offset="100%" stop-color="#d3e0ff" stop-opacity="0.10"/>
    </linearGradient>
  </defs>

  <!-- background gradient -->
  <rect width="100%" height="100%" fill="url(#bg)"/>

  <!-- soft glows -->
  <circle cx="360" cy="240" r="520" fill="url(#glow1)" filter="url(#softerBlur)"/>
  <circle cx="2100" cy="1450" r="720" fill="url(#glow2)" filter="url(#softerBlur)"/>

  <!-- abstract curved ribbons -->
  <path d="M-200,900 C400,650 1200,1150 2600,800 L2600,1700 L-200,1700 Z"
        fill="url(#ribbon1)" filter="url(#softBlur)"/>
  <path d="M-300,200 C600,100 1400,600 2600,350 L2600,-100 L-300,-100 Z"
        fill="url(#ribbon2)" filter="url(#softBlur)"/>
  <path d="M-200,1200 C500,1050 1500,1400 2600,1150 L2600,1700 L-200,1700 Z"
        fill="#c7e0ff" fill-opacity="0.12" filter="url(#softBlur)"/>

  <!-- faint lines for depth -->
  <g opacity="0.2" stroke="#bcd0ef" stroke-width="1.2">
    <path d="M0,300 C500,150 1200,450 2400,260" fill="none"/>
    <path d="M0,1050 C700,900 1500,1150 2400,970" fill="none"/>
  </g>
</svg>
